<svg xmlns="http://www.w3.org/2000/svg" version="1.1" xmlns:xlink="http://www.w3.org/1999/xlink" xmlns:svgjs="http://svgjs.dev/svgjs" width="128" height="128" viewBox="0 0 128 128"><g transform="matrix(0.8046875,0,0,0.8046875,12.41184074821259,12.814873242367177)"><svg viewBox="0 0 98 98" data-background-color="#74e42e" preserveAspectRatio="xMidYMid meet" height="127" width="128" xmlns="http://www.w3.org/2000/svg" xmlns:xlink="http://www.w3.org/1999/xlink"><g id="tight-bounds" transform="matrix(1,0,0,1,0.08387967645792571,0.08387967645792571)"><svg viewBox="0 0 97.83224064708415 97.83224064708415" height="97.83224064708415" width="97.83224064708415"><g><svg></svg></g><g><svg viewBox="0 0 97.83224064708415 97.83224064708415" height="97.83224064708415" width="97.83224064708415"><g><path d="M0 48.916c0-27.016 21.9-48.916 48.916-48.916 27.016 0 48.916 21.9 48.916 48.916 0 27.016-21.9 48.916-48.916 48.916-27.016 0-48.916-21.9-48.916-48.916zM48.916 93.244c24.481 0 44.328-19.846 44.328-44.328 0-24.481-19.846-44.328-44.328-44.327-24.481 0-44.328 19.846-44.327 44.327 0 24.481 19.846 44.328 44.327 44.328z" data-fill-palette-color="tertiary" fill="#000000" stroke="transparent"></path><ellipse rx="46.95947551060039" ry="46.95947551060039" cx="48.916120323542074" cy="48.916120323542074" fill="#000000" stroke="transparent" stroke-width="0" fill-opacity="1" data-fill-palette-color="tertiary"></ellipse></g><g transform="matrix(1,0,0,1,28.757596898547238,23.47539391502934)"><svg viewBox="0 0 40.31704684998967 50.88145281702547" height="50.88145281702547" width="40.31704684998967"><g><svg viewBox="0 0 40.31704684998967 50.88145281702547" height="50.88145281702547" width="40.31704684998967"><g><svg viewBox="0 0 40.31704684998967 50.88145281702547" height="50.88145281702547" width="40.31704684998967"><g><svg viewBox="0 0 40.31704684998967 50.88145281702547" height="50.88145281702547" width="40.31704684998967"><g><svg viewBox="0 0 40.31704684998967 50.88145281702547" height="50.88145281702547" width="40.31704684998967"><g><svg viewBox="0 0 40.31704684998967 50.88145281702547" height="50.88145281702547" width="40.31704684998967"><g><svg xmlns="http://www.w3.org/2000/svg" xmlns:xlink="http://www.w3.org/1999/xlink" version="1.1" x="0" y="0" viewBox="-250.70000000000002 140.98709328582086 63.39999999999998 80.01290671417914" enable-background="new -269 131 100 100" xml:space="preserve" height="50.88145281702547" width="40.31704684998967" class="icon-icon-0" data-fill-palette-color="quaternary" id="icon-0"><path d="M-200.1 163.7l-1-0.8c-1.2-1-3.1-0.6-3.8 0.8-0.3 0.7-0.6 7.7-0.6 8.9 0 0.2 0 0.6 0 0.7 0 1-0.9 1.8-1.9 1.6-0.8-0.1-1.4-0.9-1.4-1.7-0.1-12-3.7-20.4-10.5-26.7-4.1-3.8-9-7.2-10.5-4.6-0.4 0.7 0.2 2.2 0.9 4.1 1.4 4.3-2.9 11.2-9 18.1-5.7 6.5-12.8 14.5-12.8 26.4 0 16 15.1 30.5 31.7 30.5 16.6 0 31.7-14.5 31.7-30.5C-187.3 180.4-192.1 170.4-200.1 163.7zM-219 215.2c-7.2 0-13.1-5.9-13.1-13.1 0-3.6 1.4-6.8 3.8-9.2l7.2-8.6c1.1-1.3 3.2-1.3 4.3 0l7.2 8.6c2.3 2.4 3.8 5.6 3.8 9.2C-205.9 209.3-211.8 215.2-219 215.2z" fill="#74e42e" data-fill-palette-color="quaternary"></path></svg></g></svg></g></svg></g></svg></g></svg></g><g></g></svg></g></svg></g></svg></g><defs></defs></svg><rect width="97.83224064708415" height="97.83224064708415" fill="none" stroke="none" visibility="hidden"></rect></g></svg></g></svg>