<svg xmlns="http://www.w3.org/2000/svg" version="1.1" xmlns:xlink="http://www.w3.org/1999/xlink"
    xmlns:svgjs="http://svgjs.dev/svgjs" width="1000" height="999" viewBox="0 0 1000 999">
    <g transform="matrix(1,0,0,1,-0.2,-0.2)"><svg viewBox="0 0 343 343" data-background-color="#74e42e"
            preserveAspectRatio="xMidYMid meet" height="999" width="1000" xmlns="http://www.w3.org/2000/svg"
            xmlns:xlink="http://www.w3.org/1999/xlink">
            <defs></defs>
            <g id="tight-bounds" transform="matrix(1,0,0,1,0.1,0.1)"><svg
                    viewBox="0 0 342.85155851775386 342.85155851775386" height="342.9" width="342.9">
                    <g><svg></svg></g>
                    <g><svg viewBox="0 0 342.85155851775386 342.85155851775386" height="342.9" width="342.9">
                            <g>
                                <path
                                    d="M 0 171.4 c 0 -94.7 76.8 -171.4 171.4 -171.4 c 94.7 0 171.4 76.8 171.4 171.4 c 0 94.7 -76.8 171.4 -171.4 171.4 c -94.7 0 -171.4 -76.8 -171.4 -171.4 z M 171.4 340.6 c 93.5 0 169.2 -75.8 169.2 -169.2 c 0 -93.5 -75.8 -169.2 -169.2 -169.2 c -93.5 0 -169.2 75.8 -169.2 169.2 c 0 93.5 75.8 169.2 169.2 169.2 z"
                                    data-fill-palette-color="tertiary" fill="#000000" stroke="transparent"></path>
                                <ellipse rx="164.6" ry="164.6" cx="171.4" cy="171.4" fill="#000000" stroke="transparent"
                                    stroke-width="0" fill-opacity="1" data-fill-palette-color="tertiary"></ellipse>
                            </g>
                            <g transform="matrix(1,0,0,1,64.8,114.4)"><svg
                                    viewBox="0 0 213.1584412271571 114.10233805839624" height="114.1" width="213.2">
                                    <g><svg viewBox="0 0 213.1584412271571 114.10233805839624" height="114.1"
                                            width="213.2">
                                            <g><svg viewBox="0 0 213.1584412271571 114.10233805839624" height="114.1"
                                                    width="213.2">
                                                    <g transform="matrix(1,0,0,1,0,68.6)"><svg
                                                            viewBox="0 0 213.1584412271571 45.47127074732716"
                                                            height="45.5" width="213.2">
                                                            <g><svg viewBox="0 0 213.1584412271571 45.47127074732716"
                                                                    height="45.5" width="213.2">
                                                                    <g><svg viewBox="0 0 213.1584412271571 24.5250306607319"
                                                                            height="24.5" width="213.2">
                                                                            <g transform="matrix(1,0,0,1,0,0)"><svg
                                                                                    width="213.2"
                                                                                    viewBox="2.69 -41.33 367.91 42.33"
                                                                                    height="24.5"
                                                                                    data-palette-color="#74e42e">
                                                                                    <path
                                                                                        d="M 8.6 -0.9 L 8.6 -0.9 Q 6.6 1 4.9 1 L 4.9 1 Q 3.8 1 3.4 0.2 L 3.4 0.2 Q 3.9 -0.5 3.9 -1.9 L 3.9 -1.9 L 3.9 -2.3 Q 3.9 -2.4 3.9 -2.5 L 3.9 -2.5 Q 2.7 -3.6 2.7 -5.1 Q 2.7 -6.6 4.1 -8.2 L 4.1 -8.2 Q 3.7 -9 3.7 -9.9 Q 3.7 -10.9 4 -11.7 Q 4.3 -12.5 4.7 -13.1 L 4.7 -13.1 Q 5.8 -14.5 6.8 -14.5 Q 7.7 -14.5 8.2 -13.7 L 8.2 -13.7 Q 7.3 -12.8 7.3 -10.8 Q 7.3 -8.8 7.8 -7.3 Q 8.4 -5.9 9.5 -4.8 L 9.5 -4.8 Q 11.7 -2.5 15.2 -2.5 L 15.2 -2.5 Q 17.6 -2.5 19.2 -3.9 L 19.2 -3.9 Q 20.9 -5.3 20.9 -7.8 L 20.9 -7.8 Q 20.9 -9.6 20.1 -10.7 L 20.1 -10.7 Q 18.8 -12.4 16.1 -14.3 L 16.1 -14.3 Q 13.9 -15.8 12.7 -15.8 L 12.7 -15.8 Q 11.4 -15.8 9.8 -14.7 L 9.8 -14.7 Q 10.2 -16 10.2 -17 L 10.2 -17 Q 10.2 -17.3 9.8 -17.7 L 9.8 -17.7 L 8.9 -18.5 Q 4.6 -22.4 3.8 -25.8 L 3.8 -25.8 Q 3.5 -26.9 3.5 -28.7 Q 3.5 -30.5 4.4 -32.3 Q 5.3 -34.1 6.8 -35.4 L 6.8 -35.4 Q 9.9 -38.1 14.8 -38.1 L 14.8 -38.1 Q 17.8 -38.1 20.2 -37.1 L 20.2 -37.1 Q 21.3 -36.7 22.6 -36.7 L 22.6 -36.7 Q 23.2 -36.7 23.6 -36.8 Q 24.1 -36.8 24.4 -37.3 L 24.4 -37.3 Q 24.7 -37.7 24.7 -38.1 Q 24.7 -38.5 24.6 -38.7 L 24.6 -38.7 Q 24.8 -38.8 25.1 -38.8 Q 25.4 -38.8 25.8 -38.6 Q 26.1 -38.4 26.4 -38 L 26.4 -38 Q 27.1 -37.2 27.1 -36.1 Q 27.1 -35.1 26.5 -34.6 L 26.5 -34.6 Q 27.3 -33.8 27.3 -32.3 L 27.3 -32.3 Q 27.3 -30.8 26.3 -29.8 L 26.3 -29.8 Q 26.5 -29.1 26.5 -28.6 Q 26.5 -28.1 26.3 -27.6 Q 26.1 -27.1 25.8 -26.8 L 25.8 -26.8 Q 25.1 -26 24.5 -26 L 24.5 -26 Q 23.5 -26 22.8 -26.3 L 22.8 -26.3 Q 23.2 -27.3 23.2 -28.4 Q 23.2 -29.6 22.7 -30.8 Q 22.2 -31.9 21.3 -32.8 L 21.3 -32.8 Q 19.4 -34.6 16.3 -34.6 L 16.3 -34.6 Q 14.4 -34.6 13.1 -33.4 L 13.1 -33.4 Q 12 -32.3 12 -30.7 L 12 -30.7 Q 12 -29.5 12.6 -28.7 L 12.6 -28.7 Q 13.6 -27.3 15.8 -25.8 L 15.8 -25.8 L 17 -25.1 Q 17.9 -24.4 18.3 -24.4 Q 18.6 -24.4 19 -24.5 Q 19.3 -24.6 19.7 -24.7 L 19.7 -24.7 Q 20.6 -25 21.4 -25.5 L 21.4 -25.5 L 21.1 -24.2 Q 21 -23.5 21 -23.2 L 21 -23.2 Q 21 -22.7 21.5 -22.2 L 21.5 -22.2 Q 26.1 -18.3 27.6 -15.6 L 27.6 -15.6 Q 28.9 -13.3 28.9 -10.6 Q 28.9 -7.9 28.1 -6 Q 27.2 -4.1 25.5 -2.6 L 25.5 -2.6 Q 21.8 0.7 15.8 0.7 L 15.8 0.7 Q 11.7 0.7 8.6 -0.9 Z M 6.9 -30.5 L 6.9 -30.5 Q 6 -30.1 6 -28.5 L 6 -28.5 Q 6 -25.1 10.5 -21.1 L 10.5 -21.1 L 11.9 -19.8 Q 12.7 -19.1 12.6 -18.8 Q 12.5 -18.4 12.5 -18.2 Q 12.4 -18 12.3 -17.8 Q 12.3 -17.6 12.2 -17.5 L 12.2 -17.5 Q 13.1 -18 13.6 -18 L 13.6 -18 Q 14.7 -18 15.7 -17.4 L 15.7 -17.4 Q 20.4 -14.5 22.1 -12.2 L 22.1 -12.2 Q 23.3 -10.5 23.3 -8 L 23.3 -8 Q 23.3 -7.1 23.2 -6.5 L 23.2 -6.5 Q 24.5 -7.3 24.5 -9.1 L 24.5 -9.1 Q 24.5 -10.9 24 -11.8 Q 23.5 -12.8 22.9 -13.5 Q 22.3 -14.3 21.3 -15.1 Q 20.2 -16 18.8 -17 L 18.8 -17 L 15.3 -19.4 Q 11 -22.2 8.8 -25.3 L 8.8 -25.3 Q 6.8 -28.1 6.9 -30.5 Z M 49.9 -2.3 L 49.9 -2.3 Q 47.6 0.6 43.2 0.6 L 43.2 0.6 Q 37.8 0.6 35.1 -2.6 L 35.1 -2.6 Q 33.9 -4 33.5 -5.7 L 33.5 -5.7 Q 33.2 -6.8 32.6 -7.3 Q 32 -7.9 31.1 -8.3 L 31.1 -8.3 Q 32.9 -9.1 33.6 -11.3 L 33.6 -11.3 Q 34.4 -13.7 36.3 -14.7 L 36.3 -14.7 Q 38.3 -15.8 40.8 -15.9 Q 43.2 -15.9 44.4 -16 Q 45.5 -16.1 46.5 -16.4 L 46.5 -16.4 Q 48.1 -16.8 49.1 -17.8 L 49.1 -17.8 L 49.1 -21.5 Q 49.1 -23.9 48.1 -25 Q 47.1 -26.1 45.1 -26.1 Q 43.1 -26.1 42.1 -25.4 Q 41.2 -24.6 41.2 -23.4 L 41.2 -23.4 Q 41.2 -21.5 43.1 -21.5 L 43.1 -21.5 Q 42.7 -19.6 41.1 -19.6 L 41.1 -19.6 Q 40.6 -19.6 40.1 -19.8 L 40.1 -19.8 L 40.1 -19.7 Q 40.1 -19.1 40.7 -18.9 L 40.7 -18.9 Q 40.1 -18 38.6 -18 Q 37.2 -18 36.4 -19.6 L 36.4 -19.6 Q 36 -19.5 35.6 -19.5 Q 35.1 -19.5 34.5 -19.8 Q 33.9 -20.1 33.6 -20.6 L 33.6 -20.6 Q 34.8 -21.4 35.1 -22.9 L 35.1 -22.9 Q 35.4 -24.8 38.1 -26.7 L 38.1 -26.7 Q 41.4 -29.1 46.4 -29.1 L 46.4 -29.1 Q 54.9 -29.1 56.7 -23.9 L 56.7 -23.9 Q 57.3 -22.1 57.3 -19.8 L 57.3 -19.8 L 57.3 -17.8 Q 57.3 -16.6 57.9 -15.8 Q 58.5 -15.1 60 -14.6 L 60 -14.6 Q 58.4 -13.9 58 -13.3 L 58 -13.3 Q 57.3 -12.5 57.3 -11.4 L 57.3 -11.4 L 57.3 -4 Q 58 -2.2 59.4 -2.2 L 59.4 -2.2 Q 60.2 -2.2 60.7 -2.6 L 60.7 -2.6 Q 61.1 -2.2 61.1 -1.5 Q 61.1 -0.8 60.4 -0.1 Q 59.7 0.5 58.3 0.5 Q 56.9 0.5 55.7 -0.3 L 55.7 -0.3 Q 54.6 0.5 53.8 0.5 Q 53 0.5 52.4 0.3 Q 51.8 0.2 51.3 -0.2 L 51.3 -0.2 Q 50.1 -0.9 49.9 -2.3 Z M 51.4 -22.7 L 51.4 -6.5 Q 52.8 -7 52.9 -11.9 L 52.9 -11.9 Q 52.9 -12.9 52.9 -14.2 Q 52.9 -15.5 52.9 -16.5 Q 52.9 -17.4 52.9 -18.3 L 52.9 -18.3 Q 52.8 -21.3 52.3 -21.9 Q 51.8 -22.5 51.4 -22.7 L 51.4 -22.7 Z M 42.4 -8.2 L 42.4 -8.2 Q 42.4 -7.2 42.6 -6.2 Q 42.8 -5.2 43.3 -4.5 L 43.3 -4.5 Q 44.3 -3 46 -3 L 46 -3 Q 47.4 -3 48.3 -4 L 48.3 -4 Q 49.1 -5.1 49.1 -6.8 L 49.1 -6.8 L 49.1 -14.8 Q 47.5 -13.9 45.1 -13.5 L 45.1 -13.5 Q 42.4 -13.1 42.4 -8.2 Z M 38.7 -2.7 L 38.7 -2.7 Q 39 -2.9 39 -3.1 L 39 -3.1 Q 39 -3.5 38.6 -4.2 L 38.6 -4.2 Q 37.4 -6.4 37.4 -7.9 Q 37.4 -9.3 37.5 -9.9 Q 37.6 -10.6 37.8 -11 Q 38 -11.5 38.2 -11.8 Q 38.5 -12.2 38.6 -12.4 L 38.6 -12.4 Q 39 -13 39 -13.2 Q 39 -13.4 38.7 -13.6 L 38.7 -13.6 Q 37.7 -13.1 37.3 -12.4 L 37.3 -12.4 Q 36.5 -11.3 36.1 -9.6 L 36.1 -9.6 Q 36 -9 34.4 -8.3 L 34.4 -8.3 Q 35.9 -7.6 36.1 -7.1 L 36.1 -7.1 Q 36.9 -4.2 38.7 -2.7 Z M 79.8 -3.6 Q 80.3 -4 80.6 -4.8 Q 80.8 -5.5 80.8 -6.4 Q 80.8 -7.2 80.7 -7.9 L 80.7 -7.9 Q 80.9 -8.2 81.7 -8.4 Q 82.4 -8.6 82.7 -8.6 L 82.7 -8.6 Q 83.6 -8.6 84.2 -8 Q 84.7 -7.3 84.7 -6 Q 84.7 -4.8 84 -3.6 Q 83.3 -2.4 82.1 -1.5 L 82.1 -1.5 Q 79.4 0.6 75.9 0.6 L 75.9 0.6 Q 69.1 0.6 66.9 -4.5 L 66.9 -4.5 Q 66.1 -6.4 66.1 -9.2 L 66.1 -9.2 L 66.1 -12.2 Q 66.1 -13.3 63.6 -14.6 L 63.6 -14.6 Q 66.1 -16 66.1 -18.5 L 66.1 -18.5 L 66.1 -21.4 Q 66.1 -24.1 63.9 -24.1 L 63.9 -24.1 Q 63 -24.1 62.5 -23.7 L 62.5 -23.7 Q 62.1 -24.2 62.1 -24.7 Q 62.1 -25.2 62.3 -25.8 Q 62.5 -26.4 63 -26.9 L 63 -26.9 Q 64.2 -28.1 66.6 -27.8 L 66.6 -27.8 L 66.6 -28.5 Q 66.6 -31.1 67.9 -33.1 L 67.9 -33.1 Q 69.1 -34.8 70 -34.8 Q 70.8 -34.8 71.3 -34.2 L 71.3 -34.2 Q 71.8 -36.1 72.4 -37 Q 73.1 -37.8 74.4 -37.8 L 74.4 -37.8 L 74.4 -27.7 L 82.3 -27.7 Q 82.5 -27.3 82.5 -26.4 Q 82.5 -25.4 81.8 -24.9 Q 81.1 -24.3 80.1 -24.3 L 80.1 -24.3 L 74.4 -24.3 L 74.4 -7.8 Q 74.4 -3.6 76.3 -2.8 L 76.3 -2.8 Q 76.9 -2.6 77.5 -2.6 Q 78.2 -2.6 78.8 -2.9 Q 79.4 -3.1 79.8 -3.6 Z M 68.5 -8.1 L 68.5 -6.5 Q 69.6 -7.2 69.8 -9.5 L 69.8 -9.5 Q 69.9 -11.2 69.9 -12.1 Q 69.9 -13 69.9 -13.6 Q 69.9 -14.2 69.9 -14.5 L 69.9 -14.5 L 69.9 -15.5 Q 69.9 -16.2 69.9 -17.3 Q 69.9 -18.4 69.9 -19.7 Q 69.9 -21 69.8 -22.2 L 69.8 -22.2 Q 69.8 -25.1 69.6 -25.7 L 69.6 -25.7 Q 69.3 -27.1 68.5 -27.7 L 68.5 -27.7 L 68.5 -20.1 Q 68.5 -16.7 68.4 -16.5 Q 68.3 -16.3 68.2 -16 L 68.2 -16 Q 68 -15.3 66.5 -14.8 L 66.5 -14.8 Q 68 -14.3 68.2 -13.6 L 68.2 -13.6 Q 68.5 -12.4 68.5 -8.1 L 68.5 -8.1 Z M 92.9 -32.3 L 92.9 -32.3 Q 91.7 -32.3 90.5 -33 Q 89.3 -33.6 88.7 -34.7 L 88.7 -34.7 Q 88.1 -35.8 87 -36.4 L 87 -36.4 Q 86.6 -36.6 86.2 -36.8 L 86.2 -36.8 L 87 -37.3 Q 88.2 -38 88.8 -39.1 Q 89.3 -40.1 90.5 -40.7 Q 91.6 -41.3 92.9 -41.3 L 92.9 -41.3 Q 95.7 -41.3 96.9 -39 L 96.9 -39 Q 97.7 -37.5 99.4 -36.8 L 99.4 -36.8 Q 99.1 -36.6 98.7 -36.4 Q 98.4 -36.2 98 -36 L 98 -36 Q 97.3 -35.5 96.8 -34.6 Q 96.2 -33.6 95.2 -33 Q 94.2 -32.3 92.9 -32.3 Z M 91.6 -35.3 Q 91.5 -35.5 91.4 -35.9 Q 91.3 -36.3 91.3 -37.2 Q 91.3 -38.1 92.2 -39.5 L 92.2 -39.5 Q 91.3 -39.5 91 -39.1 Q 90.6 -38.8 90.4 -38.6 Q 90.2 -38.3 90.1 -38.1 Q 90 -37.9 89.8 -37.6 L 89.8 -37.6 Q 89.3 -36.9 89 -36.8 L 89 -36.8 Q 89.4 -36.6 89.7 -36.1 Q 90.1 -35.6 90.5 -35.1 L 90.5 -35.1 Q 91.2 -34.3 92.2 -34.3 L 92.2 -34.3 Q 92.1 -34.6 91.9 -34.8 Q 91.8 -35 91.6 -35.3 Z M 90.5 -0.3 L 90.5 -0.3 Q 89.3 0.5 87.9 0.5 Q 86.5 0.5 85.8 -0.1 Q 85.1 -0.8 85.1 -1.4 L 85.1 -1.4 Q 85.1 -2.2 85.4 -2.6 L 85.4 -2.6 Q 86 -2.2 87 -2.2 Q 88.1 -2.2 88.8 -3.6 L 88.8 -3.6 L 88.8 -11.4 Q 88.8 -12.4 88.4 -12.9 L 88.4 -12.9 Q 87.7 -13.7 85.9 -14.6 L 85.9 -14.6 Q 87.6 -15.4 88 -15.8 L 88 -15.8 Q 88.8 -16.6 88.8 -17.8 L 88.8 -17.8 L 88.8 -21.4 Q 88.8 -23.4 87.4 -23.6 L 87.4 -23.6 Q 87 -23.7 86.4 -23.7 Q 85.7 -23.7 85.2 -23.2 L 85.2 -23.2 Q 84.9 -23.7 84.9 -24.2 Q 84.9 -24.7 85.1 -25.3 Q 85.4 -25.9 85.9 -26.5 L 85.9 -26.5 Q 87.2 -27.8 88.8 -27.8 Q 90.5 -27.8 91.8 -27.3 L 91.8 -27.3 Q 93 -28.8 94.6 -28.8 L 94.6 -28.8 Q 97.1 -28.8 97.1 -26.2 L 97.1 -26.2 L 97.1 -17.8 Q 97.1 -16.6 97.6 -16.1 L 97.6 -16.1 Q 98.4 -15.4 100.1 -14.6 L 100.1 -14.6 Q 98.2 -13.7 97.8 -13.2 L 97.8 -13.2 Q 97.1 -12.4 97.1 -11.4 L 97.1 -11.4 L 97.1 -3.5 Q 97.9 -2.2 98.9 -2.2 Q 99.9 -2.2 100.5 -2.6 L 100.5 -2.6 Q 100.8 -2.2 100.8 -1.5 Q 100.8 -0.8 100.1 -0.1 Q 99.4 0.5 98 0.5 Q 96.7 0.5 95.5 -0.3 L 95.5 -0.3 Q 94.5 0.5 93 0.5 Q 91.6 0.5 90.5 -0.3 Z M 92.6 -11.9 Q 92.6 -12.7 92.6 -13.3 Q 92.6 -13.8 92.6 -14.2 L 92.6 -14.2 L 92.6 -14.8 Q 92.6 -15.2 92.6 -15.8 Q 92.6 -16.4 92.6 -17.1 Q 92.6 -17.8 92.5 -18.5 L 92.5 -18.5 Q 92.5 -20.1 92.3 -20.8 L 92.3 -20.8 Q 92 -22.2 91.2 -22.7 L 91.2 -22.7 L 91.2 -21.1 Q 91.2 -17 91 -16.3 Q 90.8 -15.6 90.4 -15.2 Q 90 -14.9 89.2 -14.6 L 89.2 -14.6 Q 90.7 -14.1 90.9 -13.3 L 90.9 -13.3 Q 91.2 -12.2 91.2 -8.1 L 91.2 -8.1 L 91.2 -6.5 Q 92.3 -7.2 92.5 -9.5 L 92.5 -9.5 Q 92.6 -11 92.6 -11.9 Z M 120.5 -2.3 L 120.5 -2.3 Q 118.3 0.6 113.8 0.6 L 113.8 0.6 Q 108.4 0.6 105.7 -2.6 L 105.7 -2.6 Q 104.5 -4 104.1 -5.7 L 104.1 -5.7 Q 103.8 -6.8 103.2 -7.3 Q 102.6 -7.9 101.7 -8.3 L 101.7 -8.3 Q 103.5 -9.1 104.2 -11.3 L 104.2 -11.3 Q 105 -13.7 106.9 -14.7 L 106.9 -14.7 Q 108.9 -15.8 111.4 -15.9 Q 113.8 -15.9 115 -16 Q 116.2 -16.1 117.1 -16.4 L 117.1 -16.4 Q 118.7 -16.8 119.7 -17.8 L 119.7 -17.8 L 119.7 -21.5 Q 119.7 -23.9 118.7 -25 Q 117.7 -26.1 115.7 -26.1 Q 113.7 -26.1 112.7 -25.4 Q 111.8 -24.6 111.8 -23.4 L 111.8 -23.4 Q 111.8 -21.5 113.7 -21.5 L 113.7 -21.5 Q 113.3 -19.6 111.7 -19.6 L 111.7 -19.6 Q 111.2 -19.6 110.7 -19.8 L 110.7 -19.8 L 110.7 -19.7 Q 110.7 -19.1 111.3 -18.9 L 111.3 -18.9 Q 110.7 -18 109.2 -18 Q 107.8 -18 107 -19.6 L 107 -19.6 Q 106.6 -19.5 106.2 -19.5 Q 105.7 -19.5 105.1 -19.8 Q 104.5 -20.1 104.2 -20.6 L 104.2 -20.6 Q 105.4 -21.4 105.7 -22.9 L 105.7 -22.9 Q 106 -24.8 108.7 -26.7 L 108.7 -26.7 Q 112 -29.1 117 -29.1 L 117 -29.1 Q 125.5 -29.1 127.3 -23.9 L 127.3 -23.9 Q 127.9 -22.1 127.9 -19.8 L 127.9 -19.8 L 127.9 -17.8 Q 127.9 -16.6 128.5 -15.8 Q 129.1 -15.1 130.6 -14.6 L 130.6 -14.6 Q 129 -13.9 128.6 -13.3 L 128.6 -13.3 Q 127.9 -12.5 127.9 -11.4 L 127.9 -11.4 L 127.9 -4 Q 128.6 -2.2 129.9 -2.2 L 129.9 -2.2 Q 130.8 -2.2 131.3 -2.6 L 131.3 -2.6 Q 131.7 -2.2 131.7 -1.5 Q 131.7 -0.8 131 -0.1 Q 130.3 0.5 128.9 0.5 Q 127.5 0.5 126.3 -0.3 L 126.3 -0.3 Q 125.2 0.5 124.4 0.5 Q 123.6 0.5 123 0.3 Q 122.4 0.2 121.9 -0.2 L 121.9 -0.2 Q 120.7 -0.9 120.5 -2.3 Z M 122 -22.7 L 122 -6.5 Q 123.4 -7 123.5 -11.9 L 123.5 -11.9 Q 123.5 -12.9 123.5 -14.2 Q 123.5 -15.5 123.5 -16.5 Q 123.5 -17.4 123.5 -18.3 L 123.5 -18.3 Q 123.3 -21.3 122.9 -21.9 Q 122.4 -22.5 122 -22.7 L 122 -22.7 Z M 113 -8.2 L 113 -8.2 Q 113 -7.2 113.2 -6.2 Q 113.4 -5.2 113.9 -4.5 L 113.9 -4.5 Q 114.9 -3 116.6 -3 L 116.6 -3 Q 118 -3 118.9 -4 L 118.9 -4 Q 119.7 -5.1 119.7 -6.8 L 119.7 -6.8 L 119.7 -14.8 Q 118.1 -13.9 115.7 -13.5 L 115.7 -13.5 Q 113 -13.1 113 -8.2 Z M 109.3 -2.7 L 109.3 -2.7 Q 109.6 -2.9 109.6 -3.1 L 109.6 -3.1 Q 109.6 -3.5 109.2 -4.2 L 109.2 -4.2 Q 108 -6.4 108 -7.9 Q 108 -9.3 108.1 -9.9 Q 108.2 -10.6 108.4 -11 Q 108.6 -11.5 108.8 -11.8 Q 109.1 -12.2 109.2 -12.4 L 109.2 -12.4 Q 109.6 -13 109.6 -13.2 Q 109.6 -13.4 109.3 -13.6 L 109.3 -13.6 Q 108.3 -13.1 107.9 -12.4 L 107.9 -12.4 Q 107 -11.3 106.7 -9.6 L 106.7 -9.6 Q 106.6 -9 105 -8.3 L 105 -8.3 Q 106.5 -7.6 106.7 -7.1 L 106.7 -7.1 Q 107.5 -4.2 109.3 -2.7 Z M 150.4 -3.6 Q 150.9 -4 151.2 -4.8 Q 151.4 -5.5 151.4 -6.4 Q 151.4 -7.2 151.3 -7.9 L 151.3 -7.9 Q 151.5 -8.2 152.3 -8.4 Q 153 -8.6 153.3 -8.6 L 153.3 -8.6 Q 154.2 -8.6 154.8 -8 Q 155.3 -7.3 155.3 -6 Q 155.3 -4.8 154.6 -3.6 Q 153.9 -2.4 152.7 -1.5 L 152.7 -1.5 Q 150 0.6 146.5 0.6 L 146.5 0.6 Q 139.7 0.6 137.5 -4.5 L 137.5 -4.5 Q 136.7 -6.4 136.7 -9.2 L 136.7 -9.2 L 136.7 -12.2 Q 136.7 -13.3 134.2 -14.6 L 134.2 -14.6 Q 136.7 -16 136.7 -18.5 L 136.7 -18.5 L 136.7 -21.4 Q 136.7 -24.1 134.5 -24.1 L 134.5 -24.1 Q 133.6 -24.1 133.1 -23.7 L 133.1 -23.7 Q 132.8 -24.2 132.8 -24.7 Q 132.8 -25.2 132.9 -25.8 Q 133.1 -26.4 133.6 -26.9 L 133.6 -26.9 Q 134.8 -28.1 137.2 -27.8 L 137.2 -27.8 L 137.2 -28.5 Q 137.2 -31.1 138.5 -33.1 L 138.5 -33.1 Q 139.7 -34.8 140.6 -34.8 Q 141.4 -34.8 141.9 -34.2 L 141.9 -34.2 Q 142.3 -36.1 143 -37 Q 143.7 -37.8 145 -37.8 L 145 -37.8 L 145 -27.7 L 152.9 -27.7 Q 153.1 -27.3 153.1 -26.4 Q 153.1 -25.4 152.4 -24.9 Q 151.7 -24.3 150.7 -24.3 L 150.7 -24.3 L 145 -24.3 L 145 -7.8 Q 145 -3.6 146.9 -2.8 L 146.9 -2.8 Q 147.5 -2.6 148.1 -2.6 Q 148.8 -2.6 149.4 -2.9 Q 150 -3.1 150.4 -3.6 Z M 139.1 -8.1 L 139.1 -6.5 Q 140.2 -7.2 140.4 -9.5 L 140.4 -9.5 Q 140.5 -11.2 140.5 -12.1 Q 140.5 -13 140.5 -13.6 Q 140.5 -14.2 140.5 -14.5 L 140.5 -14.5 L 140.5 -15.5 Q 140.5 -16.2 140.5 -17.3 Q 140.5 -18.4 140.5 -19.7 Q 140.5 -21 140.4 -22.2 L 140.4 -22.2 Q 140.3 -25.1 140.2 -25.7 L 140.2 -25.7 Q 139.9 -27.1 139.1 -27.7 L 139.1 -27.7 L 139.1 -20.1 Q 139.1 -16.7 139 -16.5 Q 138.8 -16.3 138.8 -16 L 138.8 -16 Q 138.6 -15.3 137.1 -14.8 L 137.1 -14.8 Q 138.6 -14.3 138.8 -13.6 L 138.8 -13.6 Q 139.1 -12.4 139.1 -8.1 L 139.1 -8.1 Z M 177.9 -7.4 L 177.9 -7.4 Q 178.4 -8.4 179.9 -8.4 L 179.9 -8.4 Q 180.9 -8.4 181.4 -7.6 L 181.4 -7.6 Q 181.8 -7 181.8 -6 Q 181.8 -5.1 181.4 -4.2 Q 180.9 -3.3 180.1 -2.5 Q 179.3 -1.8 178.3 -1.2 Q 177.2 -0.6 176.1 -0.2 L 176.1 -0.2 Q 173.6 0.6 171 0.6 Q 168.4 0.6 166.1 -0.3 Q 163.8 -1.1 162.2 -2.7 L 162.2 -2.7 Q 159 -5.8 158.3 -11.1 L 158.3 -11.1 Q 158.1 -12.3 157.8 -12.8 L 157.8 -12.8 Q 157 -13.8 155.3 -14.6 L 155.3 -14.6 Q 157.5 -15.5 158 -17.6 L 158 -17.6 Q 158.2 -18.2 158.3 -18.8 L 158.3 -18.8 Q 158.9 -23.1 162.7 -26.1 L 162.7 -26.1 Q 166.3 -29.1 170.7 -29.1 L 170.7 -29.1 Q 175.4 -29.1 178.8 -25.8 L 178.8 -25.8 Q 182.3 -22.4 182.3 -17.5 L 182.3 -17.5 Q 182.3 -17.3 182.3 -17.2 Q 182.3 -17 182.3 -16.9 L 182.3 -16.9 Q 182.3 -16.5 182.7 -16.5 L 182.7 -16.5 Q 183.1 -15.9 183.1 -15.3 L 183.1 -15.3 Q 183.1 -13.8 181.6 -13.6 L 181.6 -13.6 Q 181.2 -13.5 180.3 -13.3 L 180.3 -13.3 L 166.6 -11.2 L 166.6 -8.8 Q 166.6 -6 168.3 -4.3 L 168.3 -4.3 Q 169.9 -2.7 172.3 -2.7 L 172.3 -2.7 Q 175 -2.7 176.6 -3.8 L 176.6 -3.8 Q 178 -4.8 178 -6.5 L 178 -6.5 Q 178 -6.9 177.9 -7.4 Z M 166.6 -14.1 L 173.6 -15.3 L 173.6 -22.1 Q 173.6 -23.7 173 -24.5 L 173 -24.5 Q 171.9 -25.8 170.8 -25.8 Q 169.7 -25.8 168.9 -25.4 Q 168.2 -25.1 167.7 -24.4 L 167.7 -24.4 Q 166.6 -22.9 166.6 -19.8 L 166.6 -19.8 L 166.6 -14.1 Z M 175.7 -15.6 L 177.3 -15.9 L 177.3 -16.6 Q 177.3 -21.2 176.5 -22.1 L 176.5 -22.1 Q 176.2 -22.5 175.7 -22.7 L 175.7 -22.7 L 175.7 -15.6 Z M 162.6 -6.5 L 162.6 -6.5 Q 162.9 -6.7 162.9 -7.1 L 162.9 -7.1 Q 162.9 -7.6 162.7 -8.4 L 162.7 -8.4 Q 161.7 -12.3 161.7 -13.8 Q 161.7 -15.3 161.8 -16.1 Q 161.9 -17 162.1 -17.8 L 162.1 -17.8 Q 162.4 -19.5 162.7 -20.8 L 162.7 -20.8 Q 162.9 -21.6 162.9 -21.9 L 162.9 -21.9 Q 162.9 -22.5 162.6 -22.7 L 162.6 -22.7 Q 161.6 -21.5 161 -19.5 Q 160.5 -17.4 160.1 -15.8 L 160.1 -15.8 Q 160 -15.2 158.7 -14.6 L 158.7 -14.6 Q 160 -14 160.1 -13.3 L 160.1 -13.3 Q 161 -9.2 161.6 -8.1 Q 162.2 -7 162.6 -6.5 Z M 209.2 0.5 L 209.2 0.5 Q 206.7 0.5 205.3 -2.2 L 205.3 -2.2 Q 203.6 -0.2 200.6 0.4 L 200.6 0.4 Q 199.8 0.6 199 0.6 L 199 0.6 Q 193.8 0.6 191 -2.6 L 191 -2.6 Q 188.4 -5.6 188.1 -11.1 L 188.1 -11.1 Q 188 -12.2 187.6 -12.8 L 187.6 -12.8 Q 186.9 -13.7 185.1 -14.6 L 185.1 -14.6 Q 188 -15.9 188.1 -18.6 Q 188.2 -21.3 189.1 -23.3 Q 189.9 -25.2 191.3 -26.5 L 191.3 -26.5 Q 194.1 -28.8 198.9 -28.8 L 198.9 -28.8 Q 201.6 -28.8 203.5 -27.4 L 203.5 -27.4 Q 204.2 -27 204.7 -26.4 L 204.7 -26.4 L 204.7 -31.6 Q 204.7 -34.4 202.4 -34.4 L 202.4 -34.4 Q 201.6 -34.4 201 -34 L 201 -34 Q 200.7 -34.5 200.7 -35 Q 200.7 -35.5 200.9 -35.9 Q 201.2 -36.4 201.7 -36.8 L 201.7 -36.8 Q 202.9 -37.6 204.6 -37.6 Q 206.4 -37.6 207.4 -37.4 L 207.4 -37.4 Q 208.7 -39.1 210.4 -39.1 L 210.4 -39.1 Q 212.9 -39.1 212.9 -36.4 L 212.9 -36.4 L 212.9 -17.8 Q 212.9 -15.9 215.9 -14.6 L 215.9 -14.6 Q 212.9 -13.2 212.9 -11.4 L 212.9 -11.4 L 212.9 -4 Q 213.6 -2.2 214.9 -2.2 L 214.9 -2.2 Q 215.8 -2.2 216.3 -2.6 L 216.3 -2.6 Q 216.6 -2.2 216.6 -1.5 Q 216.6 -0.8 215.9 -0.1 Q 215.2 0.5 213.8 0.5 Q 212.5 0.5 211.3 -0.3 L 211.3 -0.3 Q 210.2 0.5 209.2 0.5 Z M 207 -30.5 L 207 -6.5 Q 208.2 -6.9 208.3 -9.4 L 208.3 -9.4 Q 208.3 -9.9 208.3 -10.8 Q 208.4 -11.6 208.4 -12.6 Q 208.4 -13.6 208.4 -14.6 L 208.4 -14.6 L 208.4 -16.6 Q 208.4 -17.5 208.5 -18.2 Q 208.5 -18.9 208.5 -19.4 L 208.5 -19.4 L 208.5 -19.7 Q 208.5 -19.8 208.5 -20.4 Q 208.4 -21 208.4 -22 Q 208.4 -22.9 208.4 -23.9 L 208.4 -23.9 L 208.4 -26 Q 208.3 -28.2 208.2 -28.8 L 208.2 -28.8 Q 208 -30.1 207 -30.5 L 207 -30.5 Z M 200.3 -25.2 L 200.3 -25.2 Q 196.3 -25.2 196.3 -19.5 L 196.3 -19.5 L 196.3 -8.8 Q 196.3 -4.3 199.3 -3.3 L 199.3 -3.3 Q 200.1 -3 200.9 -3 Q 201.8 -3 202.4 -3.3 Q 203.1 -3.6 203.6 -4.2 L 203.6 -4.2 Q 204.7 -5.3 204.7 -7 L 204.7 -7 L 204.7 -19.5 Q 204.7 -24 201.9 -24.9 L 201.9 -24.9 Q 201.1 -25.2 200.3 -25.2 Z M 192.4 -6.5 L 192.4 -6.5 Q 192.7 -6.7 192.7 -7.1 L 192.7 -7.1 Q 192.7 -7.6 192.5 -8.4 L 192.5 -8.4 Q 191.5 -12.3 191.5 -13.8 Q 191.5 -15.2 191.6 -16.1 Q 191.7 -16.9 191.8 -17.8 L 191.8 -17.8 Q 192.2 -19.5 192.5 -20.8 L 192.5 -20.8 Q 192.7 -21.6 192.7 -21.9 L 192.7 -21.9 Q 192.7 -22.5 192.4 -22.7 L 192.4 -22.7 Q 191.3 -21.5 190.8 -19.4 Q 190.3 -17.4 189.9 -15.8 L 189.9 -15.8 Q 189.8 -15.2 188.5 -14.6 L 188.5 -14.6 Q 189.8 -13.9 189.9 -13.3 L 189.9 -13.3 Q 190.8 -9.2 191.4 -8.1 Q 192 -7 192.4 -6.5 Z M 238.3 -0.9 L 238.3 -0.9 Q 236.3 1 234.6 1 L 234.6 1 Q 233.4 1 233.1 0.2 L 233.1 0.2 Q 233.6 -0.5 233.6 -1.9 L 233.6 -1.9 L 233.6 -2.3 Q 233.6 -2.4 233.6 -2.5 L 233.6 -2.5 Q 232.4 -3.6 232.4 -5.1 Q 232.4 -6.6 233.8 -8.2 L 233.8 -8.2 Q 233.4 -9 233.4 -9.9 Q 233.4 -10.9 233.7 -11.7 Q 233.9 -12.5 234.4 -13.1 L 234.4 -13.1 Q 235.4 -14.5 236.4 -14.5 Q 237.4 -14.5 237.8 -13.7 L 237.8 -13.7 Q 237 -12.8 237 -10.8 Q 237 -8.8 237.5 -7.3 Q 238.1 -5.9 239.2 -4.8 L 239.2 -4.8 Q 241.4 -2.5 244.9 -2.5 L 244.9 -2.5 Q 247.2 -2.5 248.9 -3.9 L 248.9 -3.9 Q 250.6 -5.3 250.6 -7.8 L 250.6 -7.8 Q 250.6 -9.6 249.8 -10.7 L 249.8 -10.7 Q 248.5 -12.4 245.8 -14.3 L 245.8 -14.3 Q 243.6 -15.8 242.4 -15.8 L 242.4 -15.8 Q 241.1 -15.8 239.5 -14.7 L 239.5 -14.7 Q 239.9 -16 239.9 -17 L 239.9 -17 Q 239.9 -17.3 239.5 -17.7 L 239.5 -17.7 L 238.6 -18.5 Q 234.3 -22.4 233.5 -25.8 L 233.5 -25.8 Q 233.2 -26.9 233.2 -28.7 Q 233.2 -30.5 234.1 -32.3 Q 235 -34.1 236.5 -35.4 L 236.5 -35.4 Q 239.6 -38.1 244.5 -38.1 L 244.5 -38.1 Q 247.4 -38.1 249.9 -37.1 L 249.9 -37.1 Q 250.9 -36.7 252.3 -36.7 L 252.3 -36.7 Q 252.9 -36.7 253.3 -36.8 Q 253.8 -36.8 254.1 -37.3 L 254.1 -37.3 Q 254.4 -37.7 254.4 -38.1 Q 254.4 -38.5 254.3 -38.7 L 254.3 -38.7 Q 254.5 -38.8 254.8 -38.8 Q 255.1 -38.8 255.5 -38.6 Q 255.8 -38.4 256.1 -38 L 256.1 -38 Q 256.8 -37.2 256.8 -36.1 Q 256.8 -35.1 256.2 -34.6 L 256.2 -34.6 Q 257 -33.8 257 -32.3 L 257 -32.3 Q 257 -30.8 256 -29.8 L 256 -29.8 Q 256.2 -29.1 256.2 -28.6 Q 256.2 -28.1 256 -27.6 Q 255.8 -27.1 255.5 -26.8 L 255.5 -26.8 Q 254.8 -26 254.2 -26 L 254.2 -26 Q 253.2 -26 252.5 -26.3 L 252.5 -26.3 Q 252.9 -27.3 252.9 -28.4 Q 252.9 -29.6 252.4 -30.8 Q 251.9 -31.9 251 -32.8 L 251 -32.8 Q 249.1 -34.6 246 -34.6 L 246 -34.6 Q 244.1 -34.6 242.8 -33.4 L 242.8 -33.4 Q 241.7 -32.3 241.7 -30.7 L 241.7 -30.7 Q 241.7 -29.5 242.2 -28.7 L 242.2 -28.7 Q 243.3 -27.3 245.5 -25.8 L 245.5 -25.8 L 246.7 -25.1 Q 247.6 -24.4 248 -24.4 Q 248.3 -24.4 248.7 -24.5 Q 249 -24.6 249.4 -24.7 L 249.4 -24.7 Q 250.3 -25 251.1 -25.5 L 251.1 -25.5 L 250.8 -24.2 Q 250.7 -23.5 250.7 -23.2 L 250.7 -23.2 Q 250.7 -22.7 251.2 -22.2 L 251.2 -22.2 Q 255.7 -18.3 257.3 -15.6 L 257.3 -15.6 Q 258.6 -13.3 258.6 -10.6 Q 258.6 -7.9 257.7 -6 Q 256.9 -4.1 255.2 -2.6 L 255.2 -2.6 Q 251.5 0.7 245.5 0.7 L 245.5 0.7 Q 241.4 0.7 238.3 -0.9 Z M 236.6 -30.5 L 236.6 -30.5 Q 235.7 -30.1 235.7 -28.5 L 235.7 -28.5 Q 235.7 -25.1 240.2 -21.1 L 240.2 -21.1 L 241.6 -19.8 Q 242.4 -19.1 242.3 -18.8 Q 242.2 -18.4 242.2 -18.2 Q 242.1 -18 242 -17.8 Q 241.9 -17.6 241.9 -17.5 L 241.9 -17.5 Q 242.8 -18 243.3 -18 L 243.3 -18 Q 244.4 -18 245.3 -17.4 L 245.3 -17.4 Q 250.1 -14.5 251.7 -12.2 L 251.7 -12.2 Q 253 -10.5 253 -8 L 253 -8 Q 253 -7.1 252.9 -6.5 L 252.9 -6.5 Q 254.2 -7.3 254.2 -9.1 L 254.2 -9.1 Q 254.2 -10.9 253.7 -11.8 Q 253.2 -12.8 252.6 -13.5 Q 252 -14.3 250.9 -15.1 Q 249.9 -16 248.4 -17 L 248.4 -17 L 245 -19.4 Q 240.7 -22.2 238.5 -25.3 L 238.5 -25.3 Q 236.5 -28.1 236.6 -30.5 Z M 268.1 -2.7 Q 266.6 -4.3 265.7 -6.5 Q 264.8 -8.6 264.6 -10.1 Q 264.4 -11.7 264.3 -12.1 Q 264.1 -12.6 263.8 -12.9 L 263.8 -12.9 Q 263.2 -13.8 261.5 -14.6 L 261.5 -14.6 Q 263.6 -15.5 264.2 -17.6 L 264.2 -17.6 Q 264.4 -18.2 264.4 -18.8 L 264.4 -18.8 Q 265.1 -23.2 268.7 -26.1 Q 272.3 -29.1 277.1 -29.1 L 277.1 -29.1 Q 282 -29.1 285.6 -26.1 L 285.6 -26.1 Q 289.1 -23.2 289.8 -18.8 L 289.8 -18.8 Q 290 -17.3 290.4 -16.6 L 290.4 -16.6 Q 291.2 -15.3 292.7 -14.6 L 292.7 -14.6 Q 291.1 -13.8 290.6 -13.2 L 290.6 -13.2 Q 289.9 -12.3 289.8 -11.1 L 289.8 -11.1 Q 289 -5.4 285.7 -2.4 Q 282.5 0.6 277.1 0.6 L 277.1 0.6 Q 271.4 0.6 268.1 -2.7 L 268.1 -2.7 Z M 281.3 -19.5 Q 281.3 -25.6 277.1 -25.6 Q 272.9 -25.6 272.9 -19.5 L 272.9 -19.5 L 272.9 -8.7 Q 272.9 -2.8 277.1 -2.8 L 277.1 -2.8 Q 281.3 -2.8 281.3 -8.7 L 281.3 -8.7 L 281.3 -19.5 Z M 283.6 -22.7 L 283.6 -6.5 Q 284.8 -6.9 284.9 -9.7 L 284.9 -9.7 Q 285.1 -12.4 285.1 -13.7 Q 285.1 -15.1 285.1 -15.9 Q 285.1 -16.9 285 -17.8 L 285 -17.8 Q 284.9 -21.4 284.5 -21.9 Q 284 -22.5 283.6 -22.7 L 283.6 -22.7 Z M 269 -6.5 L 269 -6.5 Q 269.3 -6.7 269.3 -7.1 L 269.3 -7.1 Q 269.3 -7.6 269.1 -8.4 L 269.1 -8.4 Q 268.1 -12.3 268.1 -13.8 Q 268.1 -15.3 268.2 -16.1 Q 268.3 -17 268.4 -17.8 L 268.4 -17.8 Q 268.8 -19.5 269.1 -20.8 L 269.1 -20.8 Q 269.3 -21.6 269.3 -21.9 L 269.3 -21.9 Q 269.3 -22.5 269 -22.7 L 269 -22.7 Q 267.9 -21.5 267.4 -19.5 Q 266.9 -17.4 266.5 -15.8 L 266.5 -15.8 Q 266.4 -15.2 265.1 -14.6 L 265.1 -14.6 Q 266.4 -14 266.5 -13.3 L 266.5 -13.3 Q 267.4 -9.2 268 -8.1 Q 268.6 -7 269 -6.5 Z M 319 0.5 L 319 0.5 Q 315.6 0.5 315.3 -4.3 L 315.3 -4.3 Q 314 -2 311.9 -0.7 Q 309.8 0.6 307.4 0.6 Q 304.9 0.6 303.4 -0.1 Q 301.9 -0.7 300.9 -1.9 L 300.9 -1.9 Q 299 -4.4 299 -8.9 L 299 -8.9 L 299 -10.4 Q 299 -13.2 296 -14.6 L 296 -14.6 Q 297.8 -15.4 298.2 -16 L 298.2 -16 Q 299 -16.9 299 -18.1 L 299 -18.1 L 299 -21.4 Q 299 -23.4 297.6 -23.6 L 297.6 -23.6 Q 297.1 -23.7 296.5 -23.7 Q 295.9 -23.7 295.3 -23.2 L 295.3 -23.2 Q 295 -23.7 295 -24.2 Q 295 -24.7 295.3 -25.3 Q 295.5 -25.9 296 -26.5 L 296 -26.5 Q 297.3 -27.8 299 -27.8 Q 300.7 -27.8 302.2 -27.3 L 302.2 -27.3 Q 303.2 -28.8 304.7 -28.8 L 304.7 -28.8 Q 307.2 -28.8 307.2 -26.2 L 307.2 -26.2 L 307.2 -10.3 Q 307.2 -5.6 309.4 -4.7 L 309.4 -4.7 Q 310.1 -4.4 310.9 -4.4 Q 311.7 -4.4 312.4 -4.8 Q 313.1 -5.1 313.6 -5.7 L 313.6 -5.7 Q 314.6 -6.9 314.8 -9 L 314.8 -9 L 314.8 -21.4 Q 314.8 -24.1 312.6 -24.1 L 312.6 -24.1 Q 311.7 -24.1 311.2 -23.7 L 311.2 -23.7 Q 310.9 -24.2 310.9 -24.7 Q 310.9 -25.2 311.1 -25.7 Q 311.4 -26.3 311.9 -26.8 L 311.9 -26.8 Q 313.1 -27.8 314.8 -27.8 Q 316.6 -27.8 318 -27.3 L 318 -27.3 Q 319.1 -28.8 320.6 -28.8 L 320.6 -28.8 Q 323.1 -28.8 323.1 -26.2 L 323.1 -26.2 L 323.1 -18.1 Q 323.1 -16.9 323.5 -16.4 L 323.5 -16.4 Q 324.3 -15.4 326.1 -14.6 L 326.1 -14.6 Q 323.1 -13.2 323.1 -10.4 L 323.1 -10.4 L 323.1 -4.1 Q 323.6 -2.2 325.1 -2.2 L 325.1 -2.2 Q 325.9 -2.2 326.5 -2.6 L 326.5 -2.6 Q 326.8 -2.2 326.8 -1.5 Q 326.8 -0.8 326.1 -0.1 Q 325.4 0.5 324 0.5 Q 322.5 0.5 321.2 -0.3 L 321.2 -0.3 Q 320.2 0.5 319 0.5 Z M 317.2 -22.7 L 317.2 -6.5 Q 318.6 -7 318.6 -11.9 L 318.6 -11.9 Q 318.6 -12.9 318.6 -14.2 Q 318.6 -15.5 318.6 -16.5 Q 318.6 -17.4 318.6 -18.3 L 318.6 -18.3 Q 318.5 -21.3 318 -21.9 Q 317.6 -22.5 317.2 -22.7 L 317.2 -22.7 Z M 302.6 -11.4 L 302.6 -14.6 L 302.6 -17.8 Q 302.6 -20 302.5 -20.7 L 302.5 -20.7 Q 302.1 -22.6 301.3 -22.7 L 301.3 -22.7 L 301.3 -21.1 Q 301.3 -17 301.1 -16.3 Q 300.9 -15.6 300.6 -15.2 Q 300.1 -14.9 299.4 -14.6 L 299.4 -14.6 Q 300.8 -14.1 301 -13.3 L 301 -13.3 Q 301.3 -12.2 301.3 -8.1 L 301.3 -8.1 L 301.3 -6.5 Q 302.1 -6.6 302.5 -8.6 L 302.5 -8.6 Q 302.6 -9.2 302.6 -11.4 L 302.6 -11.4 Z M 334.7 -0.3 L 334.7 -0.3 Q 333.5 0.5 332.1 0.5 Q 330.7 0.5 330 -0.1 Q 329.3 -0.8 329.3 -1.4 L 329.3 -1.4 Q 329.3 -2.2 329.6 -2.6 L 329.6 -2.6 Q 330.2 -2.2 331 -2.2 L 331 -2.2 Q 332.4 -2.2 333 -3.9 L 333 -3.9 L 333 -11.4 Q 333 -12.4 332.6 -12.9 L 332.6 -12.9 Q 331.9 -13.7 330.1 -14.6 L 330.1 -14.6 Q 331.8 -15.4 332.3 -15.8 L 332.3 -15.8 Q 333 -16.6 333 -17.8 L 333 -17.8 L 333 -31.6 Q 333 -34.4 330.8 -34.4 L 330.8 -34.4 Q 329.9 -34.4 329.4 -34 L 329.4 -34 Q 329.1 -34.5 329.1 -35 Q 329.1 -35.5 329.3 -35.9 Q 329.6 -36.4 330.1 -36.8 L 330.1 -36.8 Q 331.2 -37.6 333 -37.6 Q 334.8 -37.6 335.7 -37.4 L 335.7 -37.4 Q 337.1 -39.1 338.8 -39.1 L 338.8 -39.1 Q 341.2 -39.1 341.2 -36.4 L 341.2 -36.4 L 341.2 -17.8 Q 341.2 -16.6 341.7 -16.1 L 341.7 -16.1 Q 342.5 -15.4 344.2 -14.6 L 344.2 -14.6 Q 342.4 -13.7 341.9 -13.2 L 341.9 -13.2 Q 341.2 -12.4 341.2 -11.4 L 341.2 -11.4 L 341.2 -3.9 Q 341.8 -2.2 343.2 -2.2 L 343.2 -2.2 Q 344.1 -2.2 344.6 -2.6 L 344.6 -2.6 Q 344.9 -2.2 344.9 -1.5 Q 344.9 -0.8 344.2 -0.1 Q 343.6 0.5 342.2 0.5 Q 340.8 0.5 339.6 -0.3 L 339.6 -0.3 Q 338.6 0.5 337.2 0.5 Q 335.8 0.5 334.7 -0.3 Z M 335.4 -8.1 L 335.4 -6.5 Q 336.5 -7.2 336.7 -9.6 L 336.7 -9.6 Q 336.7 -10.6 336.8 -11.9 Q 336.8 -13.2 336.8 -13.8 Q 336.8 -14.3 336.8 -14.6 L 336.8 -14.6 L 336.8 -16.8 Q 336.8 -17.7 336.8 -18.9 L 336.8 -18.9 L 336.8 -21.2 Q 336.7 -27.7 336.5 -28.4 L 336.5 -28.4 Q 336.2 -30 335.4 -30.5 L 335.4 -30.5 L 335.4 -22.3 Q 335.4 -17.2 335.3 -16.7 Q 335.1 -16.1 335.1 -15.8 L 335.1 -15.8 Q 334.9 -15.1 333.4 -14.6 L 333.4 -14.6 Q 334.9 -14.1 335.1 -13.3 L 335.1 -13.3 Q 335.4 -12.2 335.4 -8.1 L 335.4 -8.1 Z M 352.9 -0.6 L 352.9 -0.6 Q 351.2 1 349.6 1 L 349.6 1 Q 348.8 1 348.5 0.4 L 348.5 0.4 Q 349 -0.2 349 -0.8 Q 349 -1.3 348.9 -1.6 L 348.9 -1.6 L 348.6 -2.2 L 348.9 -1.4 Q 348.4 -1.7 348 -2.3 Q 347.7 -3 347.7 -3.9 Q 347.7 -4.8 348.8 -6 L 348.8 -6 Q 348.3 -6.7 348.3 -7.5 Q 348.3 -8.3 348.5 -8.9 Q 348.8 -9.4 349.3 -9.9 L 349.3 -9.9 Q 350.2 -10.8 351.3 -10.8 L 351.3 -10.8 Q 352.1 -10.8 352.4 -10.3 L 352.4 -10.3 Q 351.7 -9.6 351.7 -8 Q 351.7 -6.5 352.3 -5.4 Q 352.8 -4.4 353.7 -3.6 L 353.7 -3.6 Q 355.6 -2 358.4 -2 L 358.4 -2 Q 361.5 -2 362.7 -4.3 L 362.7 -4.3 Q 363 -5 363 -5.7 Q 363 -6.3 362.7 -6.9 Q 362.4 -7.5 361.9 -8 L 361.9 -8 Q 361 -8.8 359.2 -9.9 L 359.2 -9.9 Q 357.6 -11.1 355.3 -11.1 L 355.3 -11.1 Q 353.8 -11.1 353.3 -10.8 L 353.3 -10.8 Q 353.6 -11.6 353.6 -12.3 Q 353.6 -13 352.6 -13.9 Q 351.6 -14.8 350.9 -15.6 Q 350.1 -16.5 349.6 -17.4 L 349.6 -17.4 Q 348.7 -19 348.7 -20.9 Q 348.7 -22.8 349.5 -24.2 Q 350.2 -25.6 351.6 -26.6 L 351.6 -26.6 Q 354.5 -28.8 359.1 -28.8 L 359.1 -28.8 Q 361.3 -28.8 362.1 -28.6 Q 362.9 -28.4 363.4 -28.3 L 363.4 -28.3 Q 364.1 -28 365 -28 Q 366 -28 366.3 -28.4 Q 366.7 -28.8 366.7 -29.2 Q 366.7 -29.5 366.6 -29.7 L 366.6 -29.7 Q 366.8 -29.8 367.1 -29.8 Q 367.4 -29.8 367.8 -29.6 Q 368.1 -29.4 368.4 -29.1 L 368.4 -29.1 Q 369 -28.5 369 -27.8 Q 369 -27 368.7 -26.6 L 368.7 -26.6 Q 369.4 -26 369.4 -24.8 Q 369.4 -23.6 368.4 -22.8 L 368.4 -22.8 Q 368.6 -22.4 368.6 -21.8 Q 368.6 -21.1 368 -20.5 Q 367.3 -19.9 366.7 -19.9 L 366.7 -19.9 Q 365.6 -19.9 365.3 -20.2 L 365.3 -20.2 Q 365.6 -21 365.6 -21.9 Q 365.6 -22.8 365.1 -23.7 Q 364.6 -24.5 363.8 -25 L 363.8 -25 Q 362.4 -26 360.5 -26 L 360.5 -26 Q 358 -26 357.1 -24.4 L 357.1 -24.4 Q 356.9 -23.9 356.9 -23.4 Q 356.9 -22.8 357 -22.3 Q 357.2 -21.8 357.6 -21.3 L 357.6 -21.3 Q 358.3 -20.4 359.6 -19.5 L 359.6 -19.5 Q 361.3 -18.4 361.9 -18.4 L 361.9 -18.4 Q 363.3 -18.4 364.4 -19.1 L 364.4 -19.1 Q 364.1 -17.9 364.1 -17.5 L 364.1 -17.5 Q 364.1 -16.8 365.2 -15.8 L 365.2 -15.8 Q 368.4 -13.7 369.5 -11.9 L 369.5 -11.9 Q 370.6 -10.1 370.6 -8 Q 370.6 -5.8 369.6 -4.3 Q 368.7 -2.8 367.1 -1.7 L 367.1 -1.7 Q 363.7 0.6 358.8 0.6 L 358.8 0.6 Q 355.5 0.6 352.9 -0.6 Z M 352 -22.9 L 352 -22.9 Q 351.3 -22.6 351.3 -21.1 Q 351.3 -19.5 352.3 -18.1 Q 353.3 -16.7 355.5 -14.9 L 355.5 -14.9 Q 356 -14.6 356 -14.2 L 356 -14.2 Q 356 -13.6 355.9 -13.3 L 355.9 -13.3 Q 356.2 -13.3 356.9 -13.4 L 356.9 -13.4 Q 358.7 -13.6 361.3 -11.8 L 361.3 -11.8 Q 365.5 -9.2 365.5 -6.3 L 365.5 -6.3 Q 365.5 -5.3 365.2 -4.7 L 365.2 -4.7 Q 366.1 -4.9 366.6 -6.2 L 366.6 -6.2 Q 366.7 -6.6 366.7 -7 L 366.7 -7 Q 366.7 -9 364.6 -11 Q 362.4 -13.1 358.4 -15 L 358.4 -15 Q 351.8 -18.3 352 -22.9 Z"
                                                                                        opacity="1"
                                                                                        transform="matrix(1,0,0,1,0,0)"
                                                                                        fill="#74e42e"
                                                                                        class="undefined-text-0"
                                                                                        data-fill-palette-color="quaternary"
                                                                                        id="text-0"></path>
                                                                                </svg></g>
                                                                        </svg></g>
                                                                    <g transform="matrix(1,0,0,1,0,30.3)"><svg
                                                                            viewBox="0 0 213.1584412271571 15.156468948332316"
                                                                            height="15.2" width="213.2">
                                                                            <g transform="matrix(1,0,0,1,0,0)"><svg
                                                                                    width="213.2"
                                                                                    viewBox="3.25 -35.2 497.86 35.400000000000006"
                                                                                    height="15.2"
                                                                                    data-palette-color="#74e42e">
                                                                                    <path
                                                                                        d="M 24.9 -24.9 L 24.6 -31.3 Q 22.1 -32.3 19.3 -32.3 L 19.3 -32.3 Q 13.6 -32.3 10.1 -28.1 Q 6.7 -24 6.7 -16 Q 6.7 -8 10.3 -4.8 L 10.3 -4.8 Q 12.8 -2.5 17.3 -2.5 L 17.3 -2.5 Q 20.1 -2.5 23 -3.2 Q 25.9 -3.9 26.9 -4.5 L 26.9 -4.5 L 27.6 -2 Q 25.4 -0.6 19.9 0 L 19.9 0 Q 18.3 0.2 16.5 0.2 Q 14.8 0.2 12.3 -0.4 Q 9.9 -0.9 7.9 -2.7 L 7.9 -2.7 Q 3.3 -6.7 3.3 -15.8 Q 3.3 -25.1 7.6 -30.1 Q 12 -35.1 19 -35.1 L 19 -35.1 Q 22.9 -35.1 25.7 -33.5 L 25.7 -33.5 Q 26.8 -33 27.4 -32.4 L 27.4 -32.4 L 27.4 -25.1 L 24.9 -24.9 Z M 55.4 -35.2 L 55.4 -35.2 Q 70.2 -35.2 70.2 -17.4 L 70.2 -17.4 Q 70.2 -9.3 66 -4.5 Q 61.8 0.2 55.4 0.2 L 55.4 0.2 Q 48.7 0.2 45 -3.5 L 45 -3.5 Q 40.7 -7.9 40.7 -16.8 Q 40.7 -25.6 44.9 -30.4 Q 49.1 -35.2 55.4 -35.2 Z M 47.4 -5.9 L 47.4 -5.9 Q 50.2 -2.8 55.4 -2.8 L 55.4 -2.8 Q 60.4 -2.8 63.6 -6.7 Q 66.8 -10.7 66.8 -18 Q 66.8 -25.4 63.4 -29.1 L 63.4 -29.1 Q 60.6 -32.2 55.4 -32.2 L 55.4 -32.2 Q 50.5 -32.2 47.3 -28.3 Q 44.1 -24.3 44.1 -16.9 Q 44.1 -9.6 47.4 -5.9 Z M 98.8 -35.2 L 98.8 -35.2 Q 113.5 -35.2 113.5 -17.4 L 113.5 -17.4 Q 113.5 -9.3 109.3 -4.5 Q 105.2 0.2 98.8 0.2 L 98.8 0.2 Q 92 0.2 88.3 -3.5 L 88.3 -3.5 Q 84 -7.9 84 -16.8 Q 84 -25.6 88.3 -30.4 Q 92.5 -35.2 98.8 -35.2 Z M 90.8 -5.9 L 90.8 -5.9 Q 93.5 -2.8 98.8 -2.8 L 98.8 -2.8 Q 103.8 -2.8 107 -6.7 Q 110.2 -10.7 110.2 -18 Q 110.2 -25.4 106.8 -29.1 L 106.8 -29.1 Q 104 -32.2 98.8 -32.2 L 98.8 -32.2 Q 93.9 -32.2 90.7 -28.3 Q 87.5 -24.3 87.5 -16.9 Q 87.5 -9.6 90.8 -5.9 Z M 131.8 0 L 128.4 0 L 128.4 -35 L 131.8 -35 L 131.8 -18.3 L 143.8 -35 L 147.7 -35 L 135.5 -18.6 L 150.1 0 L 146.2 0 L 131.8 -18.3 L 131.8 0 Z M 208.3 -35 L 216.1 -4.9 L 224.4 -35 L 227.6 -35 L 217.4 0 L 214.3 0 L 206.8 -29.8 L 198.5 0 L 195.4 0 L 186.5 -35 L 189.6 -35 L 197.2 -5 L 205.5 -35 L 208.3 -35 Z M 251.1 -2.4 L 251.1 0 L 241.7 0 L 241.7 -2.4 L 244.7 -2.8 L 244.7 -32.2 L 241.9 -32.5 L 241.9 -35 L 250.8 -35 L 250.8 -32.5 L 248.1 -32.2 L 248.1 -2.8 L 251.1 -2.4 Z M 277.9 0 L 274.7 0 L 274.7 -32 L 264.8 -32 L 265.1 -35 L 287.7 -35 L 287.5 -32 L 277.9 -32 L 277.9 0 Z M 304.9 0 L 301.8 0 L 301.8 -35 L 304.9 -35 L 304.9 -18.9 L 321.9 -18.9 L 321.9 -35 L 325.1 -35 L 325.1 0 L 321.9 0 L 321.9 -15.8 L 304.9 -15.8 L 304.9 0 Z M 384.1 -3 L 383.9 0 L 364.9 0 L 364.9 -35 L 368.3 -35 L 368.3 -3 L 384.1 -3 Z M 411.5 -35.2 L 411.5 -35.2 Q 426.3 -35.2 426.3 -17.4 L 426.3 -17.4 Q 426.3 -9.3 422.1 -4.5 Q 417.9 0.2 411.5 0.2 L 411.5 0.2 Q 404.8 0.2 401.1 -3.5 L 401.1 -3.5 Q 396.8 -7.9 396.8 -16.8 Q 396.8 -25.6 401 -30.4 Q 405.2 -35.2 411.5 -35.2 Z M 403.5 -5.9 L 403.5 -5.9 Q 406.3 -2.8 411.5 -2.8 L 411.5 -2.8 Q 416.5 -2.8 419.7 -6.7 Q 422.9 -10.7 422.9 -18 Q 422.9 -25.4 419.5 -29.1 L 419.5 -29.1 Q 416.7 -32.2 411.5 -32.2 L 411.5 -32.2 Q 406.6 -32.2 403.4 -28.3 Q 400.2 -24.3 400.2 -16.9 Q 400.2 -9.6 403.5 -5.9 Z M 442.3 -35 L 453.6 -3.8 L 464.2 -35 L 467.4 -35 L 455 0 L 451.7 0 L 438.9 -35 L 442.3 -35 Z M 500.1 -35 L 499.9 -32 L 485.3 -32 L 485.3 -18.9 L 498.8 -18.9 L 498.6 -15.8 L 485.3 -15.8 L 485.3 -3 L 501.1 -3 L 500.9 0 L 481.9 0 L 481.9 -35 L 500.1 -35 Z"
                                                                                        opacity="1"
                                                                                        transform="matrix(1,0,0,1,0,0)"
                                                                                        fill="#74e42e"
                                                                                        class="undefined-text-1"
                                                                                        data-fill-palette-color="quaternary"
                                                                                        id="text-1"></path>
                                                                                </svg></g>
                                                                        </svg></g>
                                                                </svg></g>
                                                        </svg></g>
                                                    <g transform="matrix(1,0,0,1,81.7,0)"><svg
                                                            viewBox="0 0 49.79369380477557 62.84129617280613"
                                                            height="62.8" width="49.8">
                                                            <g><svg xmlns="http://www.w3.org/2000/svg"
                                                                    xmlns:xlink="http://www.w3.org/1999/xlink"
                                                                    version="1.1" x="0" y="0"
                                                                    viewBox="-250.70000000000002 140.98709328582086 63.39999999999998 80.01290671417914"
                                                                    enable-background="new -269 131 100 100"
                                                                    xml:space="preserve" height="62.8" width="49.8"
                                                                    class="icon-icon-0"
                                                                    data-fill-palette-color="quaternary" id="icon-0">
                                                                    <path
                                                                        d="M -200.1 163.7 l -1 -0.8 c -1.2 -1 -3.1 -0.6 -3.8 0.8 c -0.3 0.7 -0.6 7.7 -0.6 8.9 c 0 0.2 0 0.6 0 0.7 c 0 1 -0.9 1.8 -1.9 1.6 c -0.8 -0.1 -1.4 -0.9 -1.4 -1.7 c -0.1 -12 -3.7 -20.4 -10.5 -26.7 c -4.1 -3.8 -9 -7.2 -10.5 -4.6 c -0.4 0.7 0.2 2.2 0.9 4.1 c 1.4 4.3 -2.9 11.2 -9 18.1 c -5.7 6.5 -12.8 14.5 -12.8 26.4 c 0 16 15.1 30.5 31.7 30.5 c 16.6 0 31.7 -14.5 31.7 -30.5 C -187.3 180.4 -192.1 170.4 -200.1 163.7 z M -219 215.2 c -7.2 0 -13.1 -5.9 -13.1 -13.1 c 0 -3.6 1.4 -6.8 3.8 -9.2 l 7.2 -8.6 c 1.1 -1.3 3.2 -1.3 4.3 0 l 7.2 8.6 c 2.3 2.4 3.8 5.6 3.8 9.2 C -205.9 209.3 -211.8 215.2 -219 215.2 z"
                                                                        fill="#74e42e"
                                                                        data-fill-palette-color="quaternary"></path>
                                                                </svg></g>
                                                        </svg></g>
                                                    <g></g>
                                                </svg></g>
                                        </svg></g>
                                </svg></g>
                        </svg></g>
                </svg>
                <rect width="342.9" height="342.9" fill="none" stroke="none" visibility="hidden"></rect>
            </g>
        </svg></g>
</svg>